<svg width="90" height="160" viewBox="0 0 90 160" fill="none" xmlns="http://www.w3.org/2000/svg">
<path d="M53.2564 158.586C30.1565 158.586 10.7748 133.097 10.7748 98.6459C10.7748 69.3959 23.563 46.6783 42.5717 40.4566V85.1879C42.5717 108.432 41.8576 116.81 31.5589 116.81V117.99H63.8768V116.81C61.3809 116.81 59.4575 116.303 57.9587 115.224C56.7622 113.709 56.1318 111.958 56.1318 109.371C56.1318 95.329 90 86.5958 90 62.058C90 51.3208 80.6661 37.2856 53.2564 37.2856C53.1277 37.2856 52.9991 37.3046 52.864 37.3046V32.7953C52.864 9.55129 53.5844 1.1733 63.8768 1.1733V0H31.5589V1.17964C41.8512 1.17964 42.5717 9.55763 42.5717 32.8017V38.4462C18.0373 43.8307 0 67.6011 0 98.6459C0 134.042 23.4536 160 53.2564 160C68.5791 160 79.1094 157.641 88.6877 154.571V138.766H87.369C87.369 138.766 79.8299 158.592 53.2564 158.592V158.586ZM53.2564 38.6999C73.2428 38.6999 82.9369 47.0779 82.9369 61.1194C82.9369 75.1609 61.6511 82.0422 52.954 94.885C52.8897 91.9803 52.864 88.7839 52.864 85.1879V38.7252C52.9991 38.7252 53.1213 38.6999 53.2564 38.6999Z" fill="#EBE2D5"/>
</svg>
