<?xml version="1.0" encoding="UTF-8"?>
<svg id="Layer_1" data-name="Layer 1" xmlns="http://www.w3.org/2000/svg" viewBox="0 0 31.61 28.09">
  <defs>
    <style>
      .cls-1 {
        fill: none;
      }

      .cls-2 {
        fill: #9d8452;
      }
    </style>
  </defs>
  <path class="cls-1" d="M3.79,9.36s.02,0,.02,0l8.45,3.31c.24,.1,.29,.49,.07,.64L3.34,19.54l2.91,1.16,13.1-5.09c.08-.03,.18-.03,.26,0l7.72,2.94h.01c.57,.24,1.02,.34,1.33,.34,.26,0,.42-.1,.54-.24,.12-.14,.2-.33,.2-.49,0-1.23-.64-3.08-2.39-4.09L6.12,6.38c-.11-.04-.2-.13-.23-.24l-1.06-3.53L2.21,1.15V7.87c0,.31,.12,.57,.39,.83,.27,.26,.68,.5,1.19,.67Z"/>
  <path class="cls-1" d="M18.9,10.31l-3.71-6.2-3.47-1.73c.37,.87,1.64,3.85,2.49,6.21l4.69,1.72Z"/>
  <path class="cls-2" d="M27.46,13.3h-.01s-.05-.03-.07-.03l-7.28-2.68L15.88,3.55c-.05-.08-.12-.15-.21-.19L11.26,1.16c-.07-.04-.16-.06-.26-.06-.03,0-.06,0-.09,.02-.15,.04-.28,.13-.34,.27-.07,.14-.07,.3-.01,.44,.02,.04,1.49,3.53,2.49,6.18l-6.38-2.35-1.02-3.43c-.04-.13-.13-.24-.24-.31C4.15,1.21,2.24,.16,2.14,.1c-.09-.06-.2-.1-.31-.1-.29,0-.52,.23-.52,.52V7.87c0,.53,.24,1.05,.67,1.46,.34,.33,.81,.6,1.4,.81l7.65,3L2.28,19.21c-.15,.1-.22,.28-.2,.48,.02,.2,.14,.36,.3,.43l3.67,1.47c.06,.03,.13,.04,.19,.04s.13-.01,.19-.04l13.05-5.08,7.52,2.87h.03c.65,.28,1.17,.4,1.63,.4s.91-.19,1.21-.53c.27-.31,.42-.69,.42-1.09,0-1.49-.74-3.66-2.83-4.86Zm-13.13-4.83c-.76-2.09-1.82-4.61-2.31-5.78l3.07,1.53,3.47,5.8-4.22-1.55Zm-1.91,4.97c.15-.1,.22-.29,.2-.48-.02-.2-.14-.36-.3-.43L3.87,9.22h-.05c-.46-.17-.86-.39-1.11-.63-.24-.23-.34-.45-.34-.72V1.4l2.35,1.31,1.04,3.47c.05,.16,.17,.28,.32,.34l20.87,7.69c1.6,.92,2.31,2.65,2.31,3.96,0,.13-.06,.28-.16,.39-.12,.13-.24,.19-.43,.19-.31,0-.76-.12-1.28-.33l-7.73-2.94c-.12-.05-.25-.05-.37,0l-13.04,5.07-2.59-1.04,8.76-6.07Z"/>
  <path class="cls-2" d="M31.25,27.35H.37C.1,27.35,0,27.55,0,27.72c0,.17,.17,.37,.37,.37H31.25c.19,0,.37-.19,.37-.37,0-.17-.17-.37-.37-.37Z"/>
</svg>