<svg width="32" height="32" viewBox="0 0 32 32" fill="none" xmlns="http://www.w3.org/2000/svg">
<path d="M32 16C32 24.8235 24.8223 32 16 32C7.17771 32 -3.13747e-07 24.8223 -6.99382e-07 16C-1.08507e-06 7.17653 7.1777 -3.13747e-07 16 -6.99382e-07C24.8223 -1.08502e-06 32 7.17771 32 16ZM0.822587 16C0.822587 24.3682 7.63079 31.1774 16 31.1774C24.3682 31.1774 31.1774 24.3692 31.1774 16C31.1774 7.63182 24.3692 0.822587 16 0.822587C7.63182 0.823162 0.822586 7.63138 0.822587 16Z" fill="white"/>
<path d="M15.8701 23.961L15.8701 7.911L16.6944 7.911L16.6944 23.961L15.8701 23.961Z" fill="white"/>
<path d="M20.5585 20.1027L16.276 24.5604L12.1201 20.0975L12.7225 19.5354L16.2859 23.3619L19.9653 19.5314L20.5585 20.1027Z" fill="white"/>
</svg>
