<?xml version="1.0" encoding="UTF-8"?>
<svg id="Layer_1" data-name="Layer 1" xmlns="http://www.w3.org/2000/svg" viewBox="0 0 33.53 34.79">
  <defs>
    <style>
      .cls-1 {
        fill-rule: evenodd;
      }

      .cls-1, .cls-2 {
        fill: #9d8452;
        stroke: #9d8452;
        stroke-miterlimit: 10;
        stroke-width: .4px;
      }
    </style>
  </defs>
  <path class="cls-2" d="M29.92,7.7c1.24,1.65,1.45,2.87,1.19,3.64-.23,.7-.82,1.05-1.41,1.05s-1.18-.35-1.41-1.05c-.26-.78-.05-2,1.2-3.66h0c.09-.12,.25-.14,.36-.05,.02,.02,.04,.04,.06,.06h0Zm.7,3.48c.2-.6,.03-1.56-.91-2.9-.94,1.34-1.11,2.3-.91,2.9,.15,.46,.53,.69,.91,.69s.76-.23,.91-.69Z"/>
  <path class="cls-2" d="M16.93,.74c1.24,1.65,1.45,2.87,1.19,3.64-.23,.7-.82,1.05-1.41,1.05s-1.18-.35-1.41-1.05c-.26-.78-.05-2,1.2-3.66h0c.09-.12,.25-.14,.36-.05,.02,.02,.04,.04,.06,.06h0Zm.7,3.48c.2-.6,.03-1.56-.91-2.9-.94,1.34-1.11,2.3-.91,2.9,.15,.46,.53,.69,.91,.69s.76-.23,.91-.69Z"/>
  <path class="cls-2" d="M4,7.7c1.24,1.65,1.45,2.87,1.19,3.64-.23,.7-.82,1.05-1.41,1.05s-1.18-.35-1.41-1.05c-.26-.78-.05-2,1.2-3.66h0c.09-.12,.25-.14,.36-.05,.02,.02,.04,.04,.06,.06h0Zm.7,3.48c.2-.6,.03-1.56-.91-2.9-.94,1.34-1.11,2.3-.91,2.9,.15,.46,.53,.69,.91,.69s.76-.23,.91-.69Z"/>
  <path class="cls-1" d="M12.68,34.2h8.12v-.95c0-.52-.42-.95-.95-.95h-6.23c-.52,0-.95,.42-.95,.95v.95h0Zm8.38,.52H12.42c-.14,0-.26-.12-.26-.26v-1.21c0-.81,.66-1.47,1.47-1.47h6.23c.81,0,1.47,.66,1.47,1.47v1.21c0,.14-.12,.26-.26,.26h0Z"/>
  <path class="cls-1" d="M14.11,25.55c-.49,0-.89,.4-.89,.89s.4,.89,.89,.89h5.27c.49,0,.89-.4,.89-.89s-.4-.89-.89-.89h-5.27Zm5.27,2.3h-5.27c-.78,0-1.41-.63-1.41-1.41s.63-1.41,1.41-1.41h5.27c.78,0,1.41,.63,1.41,1.41s-.63,1.41-1.41,1.41Z"/>
  <path class="cls-1" d="M14.34,32.31c-.14,0-.26-.12-.26-.26v-4.46c0-.14,.12-.26,.26-.26s.26,.12,.26,.26v4.46c0,.14-.12,.26-.26,.26h0Zm4.81,0c-.14,0-.26-.12-.26-.26v-4.46c0-.14,.12-.26,.26-.26s.26,.12,.26,.26v4.46c0,.14-.12,.26-.26,.26h0Z"/>
  <path class="cls-1" d="M7.55,26.47c-.21,0-.43-.03-.65-.08-1.68-.39-2.46-1.36-2.63-3.26,0-.02,0-.05-.01-.07-.04-.14,.04-.28,.18-.32,.14-.04,.28,.04,.32,.18,.02,.06,.03,.11,.03,.17,.15,1.68,.77,2.46,2.23,2.8,2.47,.57,3.66-2.94,4.37-5.04,.05-.16,.11-.31,.15-.45,.77-2.21,1.5-4.31,2.85-5.37,.11-.09,.28-.07,.37,.04,.09,.11,.07,.28-.04,.37-1.24,.97-1.94,2.99-2.68,5.13-.05,.14-.1,.29-.15,.44-.37,1.08-.87,2.56-1.63,3.7-.78,1.17-1.68,1.76-2.7,1.76h0Zm-.17,1.21c-.25,0-.51-.02-.78-.05-3.19-.39-3.54-4.23-3.56-4.39,0-.09,0-.17,.02-.26,.03-.14,.17-.23,.31-.2,.14,.03,.23,.17,.2,.31,0,.03,0,.07,0,.1,.01,.15,.33,3.58,3.1,3.92,.24,.03,.48,.04,.7,.04,3.16,0,4.17-2.95,5.16-5.82,.06-.18,.12-.36,.19-.54,.04-.11,.08-.24,.13-.37,.47-1.38,1.25-3.69,2.46-4.52,.12-.08,.28-.05,.36,.07,.08,.12,.05,.28-.07,.36-1.07,.73-1.82,2.94-2.27,4.26-.05,.14-.09,.26-.13,.38-.06,.18-.12,.36-.19,.54-1,2.9-2.12,6.17-5.63,6.17h0Z"/>
  <path class="cls-1" d="M25.94,26.47c-1.02,0-1.93-.59-2.7-1.76-.76-1.14-1.26-2.62-1.63-3.7-.05-.16-.1-.31-.15-.44-.75-2.16-1.46-4.2-2.71-5.16-.11-.09-.14-.25-.05-.37,.09-.11,.25-.14,.36-.05,1.38,1.05,2.11,3.17,2.89,5.4,.05,.14,.1,.29,.15,.45,.71,2.1,1.9,5.61,4.37,5.04,1.46-.34,2.08-1.12,2.23-2.8,0-.06,.02-.12,.03-.17,.04-.14,.19-.22,.32-.18,.14,.04,.22,.19,.18,.32,0,.02-.01,.05-.01,.07-.17,1.9-.95,2.87-2.63,3.26-.22,.05-.44,.08-.65,.08h0Zm.17,1.22c-3.52,0-4.64-3.27-5.63-6.17-.06-.18-.12-.36-.19-.54-.68-1.95-1.38-3.96-2.39-4.64-.12-.08-.15-.24-.07-.36,.08-.12,.24-.15,.36-.07,1.16,.78,1.86,2.78,2.59,4.9,.06,.18,.12,.36,.19,.54,.98,2.86,1.99,5.82,5.16,5.82,.22,0,.45-.01,.7-.04,2.77-.34,3.09-3.78,3.1-3.92,0-.04,0-.07,0-.11-.03-.14,.06-.28,.2-.31,.14-.03,.28,.06,.31,.2,.02,.08,.02,.17,.02,.26-.01,.16-.37,4-3.56,4.39-.27,.03-.53,.05-.78,.05h0Z"/>
  <path class="cls-1" d="M.96,20.24c.13,1.45,1.35,2.58,2.83,2.58s2.7-1.14,2.83-2.58H.96Zm2.83,3.1c-1.85,0-3.36-1.51-3.36-3.36,0-.14,.12-.26,.26-.26H6.89c.14,0,.26,.12,.26,.26,0,1.85-1.51,3.36-3.36,3.36h0Z"/>
  <path class="cls-1" d="M15.44,25.55c-.14,0-.26-.12-.26-.26V15.84c0-.14,.12-.26,.26-.26s.26,.12,.26,.26v9.45c0,.14-.12,.26-.26,.26h0Zm2.61,0c-.14,0-.26-.12-.26-.26V15.81c0-.14,.12-.26,.26-.26s.26,.12,.26,.26v9.48c0,.14-.12,.26-.26,.26h0Z"/>
  <path class="cls-1" d="M26.87,20.24c.13,1.45,1.35,2.58,2.83,2.58s2.7-1.14,2.83-2.58h-5.66Zm2.83,3.1c-1.85,0-3.36-1.51-3.36-3.36,0-.14,.12-.26,.26-.26h6.2c.14,0,.26,.12,.26,.26,0,1.85-1.51,3.36-3.36,3.36h0Z"/>
  <path class="cls-1" d="M13.88,13.27c.13,1.45,1.35,2.58,2.83,2.58s2.7-1.14,2.83-2.58h-5.66Zm2.83,3.1c-1.85,0-3.36-1.51-3.36-3.36,0-.14,.12-.26,.26-.26h6.2c.14,0,.26,.12,.26,.26,0,1.85-1.51,3.36-3.36,3.36h0Z"/>
  <path class="cls-1" d="M3.79,14.51c-.14,0-.26-.12-.26-.26v-2.11c0-.14,.12-.26,.26-.26s.26,.12,.26,.26v2.11c0,.14-.12,.26-.26,.26h0Z"/>
  <path class="cls-1" d="M5.27,20.24c-.14,0-.26-.12-.26-.26v-5.46H2.56v5.46c0,.14-.12,.26-.26,.26s-.26-.12-.26-.26v-5.72c0-.14,.12-.26,.26-.26h2.98c.14,0,.26,.12,.26,.26v5.72c0,.14-.12,.26-.26,.26h0Z"/>
  <path class="cls-1" d="M16.71,7.55c-.14,0-.26-.12-.26-.26v-2.11c0-.14,.12-.26,.26-.26s.26,.12,.26,.26v2.11c0,.14-.12,.26-.26,.26h0Z"/>
  <path class="cls-1" d="M18.2,13.27c-.14,0-.26-.12-.26-.26V7.55h-2.46v5.46c0,.14-.12,.26-.26,.26s-.26-.12-.26-.26V7.29c0-.14,.12-.26,.26-.26h2.98c.14,0,.26,.12,.26,.26v5.72c0,.14-.12,.26-.26,.26h0Z"/>
  <path class="cls-1" d="M29.7,14.51c-.14,0-.26-.12-.26-.26v-2.11c0-.14,.12-.26,.26-.26s.26,.12,.26,.26v2.11c0,.14-.12,.26-.26,.26h0Z"/>
  <path class="cls-1" d="M31.19,20.24c-.14,0-.26-.12-.26-.26v-5.46h-2.46v5.46c0,.14-.12,.26-.26,.26s-.26-.12-.26-.26v-5.72c0-.14,.12-.26,.26-.26h2.98c.14,0,.26,.12,.26,.26v5.72c0,.14-.12,.26-.26,.26h0Z"/>
</svg>